<?xml version="1.0" encoding="UTF-8"?>
<svg version="1.1" viewBox="0 0 2048 1965" width="596" height="572" xmlns="http://www.w3.org/2000/svg">
<path transform="translate(0)" d="m0 0h2048v1965h-2048z" fill="#FEFEFE"/>
<path transform="translate(1208,221)" d="m0 0 4 1 1 5-6 10-18 33-13 23-15 26-9 15-17 28-32 52-28 42-19 29-8 12-13 19-11 16-12 17-13 18-10 14-12 16-13 18-16 21-10 14-14 19-10 13-13 17-10 13-11 14-13 16-9 11-11 14-14 18-12 16-14 18-21 28-21 27 2 1 44-5 100-15 177-23 8 1 3 1-1 6-26 52-12 22-16 29-14 26-13 24-8 14-7 14-14 24-16 27-5 10-1 6 8-7 8-10 13-16 11-14 12-14 10-13 3-5 6 1 2-6 6-10 12-12 7-8 7-7 7-8 11-13 9-12 5-7h6l8-14 15-16 7-8 9-11 14-17 11-14 9-10 9-11 13-15 12-14 9-11 12-16-7 2-291 39-31 4h-24l4-16 10-17 13-20 12-19 26-38 14-20 13-18 12-17 13-18 11-14 10-13 22-28 13-16 5-6 5-1-1 9-6 15-9 19-38 76-11 23-16 34-6 13-4 15 45-9 49-7 170-23 106-15h11l-3 10-6 10-30 32-10 11-9 11-11 12-7 8-9 10-10 11-8 10-12 14-8 10-22 24-7 8-12 14-8 10-13 16-11 12-14 15-7 8-13 15-11 14-12 14-7 8-12 13-9 10-9 11-11 13-9 11-13 15-10 11-9 11-12 14-11 14-9 10-9 11-9 10-9 11-9 10-9 11-9 10-8 10-11 13-11 14-11 13-9 11-12 14-13 15-9 11-24 28-9 10-5 5-3 4h-3l-2-9 17-41 14-32 14-31 16-37 27-63 13-30 19-45 30-72 33-77 10-23-9 2-203 27-84 12-13 1h-20l1-5 7-12 13-18 14-19 13-16 9-12 11-14 10-13 13-17 14-18 10-13 14-18 20-26 14-18 10-13 13-17 12-16 20-26 22-28 14-18 10-13 13-18 13-17 8-11 10-13 12-16 16-21 15-20 10-13 39-52 16-21 12-16 14-18 13-17 11-14 12-15 11-14 14-17 22-28 12-15z" fill="#010101"/>
<path transform="translate(367,1474)" d="m0 0 18 1 29 12 10 9 10 10 6 10 9 21v40l-5 12-8 16-7 8-7 7-11 9-9 6-13 5h-41l-32-16-10-13-10-14-5-10-2-19-1-14v-12l9-26 9-11 11-12 17-11 9-5 10-2z" fill="#010101"/>
<path transform="translate(132,1478)" d="m0 0h77l12 8 9 7 8 10 6 9 2 6v27l-11 23-9 10-5 2h-3l9 20 11 18 7 10 1 3v8l-1 1h-36l-4-4-14-19-9-13-2-12-13-2-1 49-1 1h-33z" fill="#010101"/>
<path transform="translate(1386,1478)" d="m0 0h35l7 15 7 17 10 23 11 26 18 41 8 18 5 15v5l-4 2h-33l-10-19-6-12-1-7-64 3-3 10-11 23-2 2h-33l1-16 4-16 14-29 7-17 25-55 14-28z" fill="#010101"/>
<path transform="translate(744,1478)" d="m0 0h32l5 8 12 27 14 31 16 37 10 23 6 15 3 13v8h-34l-12-22-6-12-2-1-62-3-6 17-11 18-4 3h-24l-9-1 2-11 4-11 15-33 13-28 9-20 16-36 6-14z" fill="#010101"/>
<path transform="translate(1783,1475)" d="m0 0h12l15 2 1 1v161l-3 1h-31l-3-9v-18l2-36-63-1 3 18v36l-2 7-4 3h-28l-2-1-2-9v-126l1-26h36l1 5v58l51-3h6l3-56 1-5z" fill="#010101"/>
<path transform="translate(501,1478)" d="m0 0h77l20 12 8 9 6 9 5 13v11l-2 16-5 10-7 10-9 9-10 8-9 4-39 1-1 45-3 5h-27l-4-1z" fill="#010101"/>
<path transform="translate(1568,1474)" d="m0 0h19l12 6 11 7 8 7 6 9v15l-2 1h-28l-5-3-3-3h-21l-4 13 4 4 16 8 19 10 11 6 12 13 6 9 1 3v24l-8 16-4 5-16 12-15 4-15 2-5 1-27-9-5-5-10-11-3-5-3-16 4-2 31-3 4 9 3 7 22-3 5-2 1-3v-15l-5-2-34-17-11-6-5-5-9-11-2-5v-30l6-10 7-9 10-7 9-6 6-2z" fill="#010101"/>
<path transform="translate(1038,1478)" d="m0 0h109l1 2-1 29-4 1-68-1v32l51 3 2 1v27l-2 4-5 1-46 3-3 54-2 5-3 1h-24l-5-2-1-3v-156z" fill="#010101"/>
<path transform="translate(1196,1478)" d="m0 0h34l1 15 3 112 45 2 14 1 3 1v13l-2 16-1 2h-92l-5-2-1-107v-30z" fill="#010101"/>
<path transform="translate(354,1512)" d="m0 0h31l11 6 7 5 11 19 1 3v25l-10 18-6 7-11 7-4 3h-30l-10-6-10-7-9-16-3-19 1-6 8-21 5-6 15-11z" fill="#FEFEFE"/>
<path transform="translate(1096,1783)" d="m0 0h34l4 2 3 5v12l-3 16 5 2 2 17-5 7-3 2-18 1-24-1-2-9-1-7v-45l1-1z" fill="#010101"/>
<path transform="translate(1173,1783)" d="m0 0h35l8 7 4 5v18l-4 6-2 2h-5l7 18v3l-6-2-8-6-5-5-7-1h-10l-4 18h-9v-56l2-6z" fill="#010101"/>
<path transform="translate(614,1789)" d="m0 0h18l5 3 11 11 1 2v13l-2 11-5 5-13 6-7 1-15-4-10-9-2-4v-18l9-11 6-5z" fill="#FEFEFE"/>
<path transform="translate(1428,1789)" d="m0 0h26l6 2 2 4 5 2 4 5 1 2v19l-3 5-11 9-6 1h-20l-5-1v-47z" fill="#FEFEFE"/>
<path transform="translate(878,1783)" d="m0 0 4 2 11 4 8 10 12 20 4 8 5 1 3-41 1-3 9 2v57l-4 4-3 2h-4l-9-11-10-12-12-19-4-8h-3l1 11v10l-2 20-2 4-5 3h-3v-49z" fill="#010101"/>
<path transform="translate(987,1780)" d="m0 0h19l8 3 9 6 1 1v5l-17-2h-20l-5 3-7 8-1 2v19l4 4v2l4 2 3 3 14 1 13-1 5-3v-11l-20-1 1-5 3-1h26v24l-4 3-13 4h-29l-10-7-8-6-2-4-1-13 1-11 7-13 7-6z" fill="#010101"/>
<path transform="translate(1273,1783)" d="m0 0h7l4 8 7 22 1 6 5-1 8 15 1 9-3 6-4-2-11-11-33-1-2 6-4 6-5 1 1-7 6-16 18-36z" fill="#010101"/>
<path transform="translate(542,1509)" d="m0 0h21l6 4 10 9 1 1v18l-9 10-3 3-32 1-2-3 1-40z" fill="#FEFEFE"/>
<path transform="translate(167,1510)" d="m0 0h16l18 2 5 5 5 7v8l-3 13-7 6-5 3-29 1-1-4z" fill="#FEFEFE"/>
<path transform="translate(1422,1781)" d="m0 0h21l17 2 5 3 14 14 2 4v18l-4 8-12 14-4 2h-42l-1-5v-58zm6 8-1 1v47l5 1h20l7-2 11-9 2-4v-19l-4-6-4-3h-2l-2-4-6-2z" fill="#010101"/>
<path transform="translate(801,1783)" d="m0 0 4 1 2 35 1 24h-12l-1-20h-14l-20 2-3 19-1 2h-9v-53l2-5 6-2 1 1v25l38-1 1-25z" fill="#010101"/>
<path transform="translate(1333,1784)" d="m0 0 11 2 9 11 7 11 3 8 8 3 8 7 1-39h6v50l-1 6h-12l-9-10-7-11-10-17v-2h-3v7l-5 29-2 6-5 1v-61z" fill="#010101"/>
<path transform="translate(615,1780)" d="m0 0 16 2 10 4 14 13 1 5v17l-2 9-7 9-7 6-2 1h-27l-12-6-7-8-5-9v-12l3-12 7-8 7-7 6-3zm-1 9-5 2-6 5-8 10v18l4 6 8 7 6 2 12 2 11-4 8-5 3-3 2-11v-13l-7-8-7-7-3-1z" fill="#010101"/>
<path transform="translate(466,1781)" d="m0 0h16l12 2 5 10v2h-11l-12-1h-12l-7 7-3 11v12l6 11 10 2 21-1 9-1-2 6-3 3-11 5-5 1-14-3-10-5-9-9-3-7v-18l4-10 6-9 7-6z" fill="#010101"/>
<path transform="translate(692,1780)" d="m0 0h23l9 2 1 1v6l-4 2-14 1-3 47-1 7-4 1-2-1-2-27-1-25-1-4-18-1-1-3 3-3 5-2z" fill="#010101"/>
<path transform="translate(1179,1790)" d="m0 0h14l14 2 3 3 4 10v5l-5 5h-31l-2-2v-20z" fill="#FEFEFE"/>
<path transform="translate(529,1783)" d="m0 0 9 3v51h28l1 4-1 5h-37z" fill="#010101"/>
<path transform="translate(1399,1535)" d="m0 0 6 1 4 3 9 26v2l-9 2h-16l-7-2 2-9 6-15 3-6z" fill="#FEFEFE"/>
<path transform="translate(757,1535)" d="m0 0 6 1 4 2 4 15 2 9v5l-7 2-6 1-14-2-1-1 1-12 3-7 7-12z" fill="#FEFEFE"/>
<path transform="translate(837,1783)" d="m0 0h5l2 5 2 16v39l-7 4h-3l-2-29v-32z" fill="#010101"/>
<path transform="translate(1101,1789)" d="m0 0h22l5 2v9l-1 8-2 2-19 2-8-2-1-1 1-11 1-7z" fill="#FEFEFE"/>
<path transform="translate(1100,1818)" d="m0 0h27l5 7-2 12-29 1-1-1z" fill="#FEFEFE"/>
<path transform="translate(1273,1802)" d="m0 0 7 2 8 16v1l-13 1h-10l1-5 5-14z" fill="#FEFEFE"/>
</svg>
